<svg xmlns="http://www.w3.org/2000/svg" viewBox="0 0 190 64" role="img" aria-label="Google Pay">
  <rect width="190" height="64" rx="6" fill="#fff"/>
  <g transform="translate(17 10)">
    <path d="M24 19.5v8h11.4c-.9 4.9-5 8-11.4 8-6.9 0-12.5-5.7-12.5-12.7S17.1 10 24 10c3.1 0 6 .9 8.2 3.1l5.9-5.9C34.5 3.9 29.7 2 24 2 12.5 2 3.2 11.3 3.2 22.8S12.5 43.6 24 43.6c12 0 20.1-8.4 20.1-20.1 0-1.4-.1-2.7-.4-4H24z" fill="#4285F4"/>
    <path d="M5.6 14.2l6.8 5c1.9-5.5 6.1-9.2 11.6-9.2 3.1 0 6 .9 8.2 3.1l5.9-5.9C34.5 3.9 29.7 2 24 2 15.8 2 8.8 6.8 5.6 14.2z" fill="#EA4335"/>
    <path d="M24 43.6c5.5 0 10-1.8 13.4-4.8l-6.4-5.3c-1.7 1.2-4 2-7 2-5.3 0-9.9-3.6-11.5-8.6l-6.9 5.3c3.3 6.9 10.4 11.4 18.4 11.4z" fill="#34A853"/>
    <path d="M12.5 26.9c-.4-1.3-.7-2.7-.7-4.1s.2-2.8.7-4.1l-6.9-5.3c-1.5 2.9-2.4 6.1-2.4 9.4s.9 6.5 2.4 9.4l6.9-5.3z" fill="#FBBC05"/>
    <text x="57" y="31" font-family="Arial, Helvetica, sans-serif" font-size="25" font-weight="700" fill="#3C4043">Google Pay</text>
  </g>
</svg>
